<?xml version="1.0" standalone="no"?>
<!DOCTYPE svg PUBLIC "-//W3C//DTD SVG 20010904//EN"
 "http://www.w3.org/TR/2001/REC-SVG-20010904/DTD/svg10.dtd">
<svg version="1.0" xmlns="http://www.w3.org/2000/svg"
 width="500.000000pt" height="500.000000pt" viewBox="0 0 500.000000 500.000000"
 preserveAspectRatio="xMidYMid meet">
<metadata>
Created by potrace 1.14, written by Peter Selinger 2001-2017
</metadata>
<g transform="translate(0.000000,500.000000) scale(0.100000,-0.100000)"
fill="#000000" stroke="none">
<path d="M2427 4884 c-1 -1 -49 -5 -106 -9 -58 -3 -107 -8 -110 -9 -4 -2 -30
-7 -60 -10 -29 -4 -56 -8 -60 -10 -3 -2 -28 -7 -55 -10 -27 -4 -52 -9 -56 -11
-4 -2 -17 -6 -31 -8 -86 -16 -285 -82 -408 -136 -520 -229 -952 -649 -1192
-1159 -80 -171 -146 -366 -183 -542 -19 -93 -23 -121 -41 -295 -6 -52 -6 -320
-1 -365 2 -19 7 -64 11 -100 4 -36 8 -72 10 -80 1 -8 6 -33 9 -55 32 -193 122
-465 218 -655 270 -533 715 -935 1278 -1155 75 -29 234 -79 286 -89 10 -2 48
-11 84 -19 36 -8 88 -18 115 -21 28 -4 64 -9 80 -11 185 -28 452 -20 705 20
170 26 443 116 624 205 91 44 253 136 266 150 3 3 34 25 70 49 36 25 67 47 70
50 3 4 28 24 55 46 339 270 620 678 755 1095 28 85 64 218 73 270 40 217 48
299 47 485 0 77 -2 158 -5 180 -2 22 -7 69 -10 105 -4 36 -8 67 -10 71 -2 3
-7 28 -11 55 -9 71 -60 272 -83 334 -15 40 -18 57 -10 67 7 7 8 13 5 13 -4 0
-1 6 6 14 7 8 24 29 38 45 14 17 37 43 51 59 26 27 31 73 9 80 -6 2 -10 10
-10 18 0 18 -41 34 -69 27 -14 -4 -20 -11 -16 -20 3 -9 -11 -1 -31 17 -36 31
-47 33 -96 15 -8 -3 -37 37 -83 116 -147 254 -337 474 -570 661 -71 56 -236
170 -290 199 -17 9 -55 30 -87 47 -202 112 -554 226 -759 248 -35 3 -67 8 -70
10 -10 5 -347 22 -352 18z"/>
</g>
</svg>
