<?xml version="1.0" encoding="utf-8"?>
<!-- Generator: Adobe Illustrator 18.1.0, SVG Export Plug-In . SVG Version: 6.00 Build 0)  -->
<svg version="1.1" id="Layer_1" xmlns="http://www.w3.org/2000/svg" xmlns:xlink="http://www.w3.org/1999/xlink" x="0px" y="0px"
	 viewBox="0 0 451.9 101.4" enable-background="new 0 0 451.9 101.4" xml:space="preserve">
<g>
	<g>
		<path fill="#0067AC" d="M0,0h62.7v19.3H25.2v20.2h25.2v19.3H25.2v20.7h37.5v20.2H0V0z"/>
		<path fill="#0067AC" d="M69.7,0h22.7v99.7H69.7V0z"/>
		<path fill="#0067AC" d="M101.2,0h22.7v99.7h-22.7V0z"/>
		<path fill="#0067AC" d="M132.7,0h22.7v20.2h-22.7V0z M132.7,29.4h22.7v70.3h-22.7V29.4z"/>
		<path fill="#0067AC" d="M183.5,69.6c0,6.2,1.3,16.7,10.2,16.7c5.5,0,10.1-3.9,11.5-9.7l15.3,5.6c-1,3.2-8,19.2-28.1,19.2
			c-21.7,0-31.5-17.5-31.5-37c0-19.9,10.4-36.7,31.2-36.7c21.8,0,29.4,18.8,29.4,37.1v4.8H183.5z M200.5,56.1
			c-0.1-6.6-0.7-14.1-8.5-14.1c-6.4,0-8.4,7.6-8.4,14.1H200.5z"/>
		<path fill="#A7A9AC" d="M227.9,0h35.3L274,55.9h0.3L287,0h34.3v99.7h-25.2V26h-0.3l-17.2,73.6h-15.3l-15.8-76.2h-0.3v76.2h-19.3V0
			z"/>
		<path fill="#A7A9AC" d="M362.2,50.3c0-4.2-1.8-8.3-5.9-8.3c-5.2,0-7,5.3-7.4,9.2l-19.7-4.1c2.5-13.9,15.1-19.5,28-19.5
			c13.6,0,27.7,5.9,27.7,21.4v39.2c0,8,1.3,10.4,2.1,11.3h-23.4c-0.4-2-0.4-4.3-0.7-6.4c-4.1,4.8-10.1,8.1-17.1,8.1
			c-12.2,0-20.2-7.8-20.2-21.6c0-18.9,21.3-24.4,36.5-24.8V50.3z M362.2,65.9c-8.7,0.8-13.9,2.4-13.9,12.7c0,4.9,2.5,7.6,6.6,7.6
			c2,0,4.5-1.3,7.3-4.5V65.9z"/>
		<path fill="#A7A9AC" d="M405.9,69.6c0,6.2,1.3,16.7,10.2,16.7c5.5,0,10.1-3.9,11.5-9.7l15.3,5.6c-1,3.2-8,19.2-28.1,19.2
			c-21.7,0-31.5-17.5-31.5-37c0-19.9,10.4-36.7,31.2-36.7c21.8,0,29.4,18.8,29.4,37.1v4.8H405.9z M422.8,56.1
			c-0.1-6.6-0.7-14.1-8.5-14.1c-6.4,0-8.4,7.6-8.4,14.1H422.8z"/>
	</g>
	<g>
		<path fill="#A7A9AC" d="M445.2,28.2c3.7,0,6.7,3,6.7,6.7c0,3.7-3,6.7-6.7,6.7c-3.7,0-6.7-3-6.7-6.7
			C438.6,31.1,441.6,28.2,445.2,28.2z M445.2,39.7c2.8,0,4.7-2,4.7-4.9c0-2.9-1.9-4.9-4.7-4.9c-2.8,0-4.7,2-4.7,4.9
			C440.5,37.7,442.4,39.7,445.2,39.7z M444.3,38h-1.4v-6.4h2.6c1.5,0,2.4,0.4,2.4,1.9c0,1.4-0.8,1.8-1.5,1.8l1.6,2.7h-1.5l-1.4-2.6
			h-0.7V38z M444.3,34.2h1.2c0.5,0,0.8-0.1,0.8-0.7c0-0.6-0.3-0.7-0.8-0.7h-1.2V34.2z"/>
	</g>
</g>
</svg>
