<?xml version="1.0" encoding="UTF-8"?>
<svg version="1.1" xmlns="http://www.w3.org/2000/svg" width="233" height="54">
<path d="M0 0 C2 2 2 2 2 4.375 C0.58315606 8.09421533 -1.56453687 9.14484991 -5 11 C-5.99 11 -6.98 11 -8 11 C-8.309375 11.804375 -8.61875 12.60875 -8.9375 13.4375 C-10 16 -10 16 -11 17 C-6.67092697 19.68089583 -2.70110115 19.02687904 2.22265625 18.77734375 C5 19 5 19 6.83984375 20.2890625 C8.83322078 23.22879025 8.48026045 25.57814426 8 29 C5.48613627 31.8096124 3.60691377 32.82298348 0 33.875 C-3.29136135 34.01214006 -5.06618274 33.42726245 -8 32 C-10.92824652 31.02391783 -12.95613276 30.91773332 -16 31 C-15.71125 31.721875 -15.4225 32.44375 -15.125 33.1875 C-14.568125 34.5796875 -14.568125 34.5796875 -14 36 C-13.608125 36.886875 -13.21625 37.77375 -12.8125 38.6875 C-12.544375 39.450625 -12.27625 40.21375 -12 41 C-12.33 41.66 -12.66 42.32 -13 43 C-18.46325879 43.36421725 -18.46325879 43.36421725 -20.75 41.8125 C-22.24270809 39.64807327 -23.13051518 37.47468755 -24 35 C-24.66 35.99 -25.32 36.98 -26 38 C-26.99 38 -27.98 38 -29 38 C-30 31.25 -30 31.25 -30 29 C-30.99 28.67 -31.98 28.34 -33 28 C-33.125 25.625 -33.125 25.625 -33 23 C-32.34 22.34 -31.68 21.68 -31 21 C-31.32198966 17.90073181 -31.32198966 17.90073181 -32 15 C-31.21625 14.649375 -30.4325 14.29875 -29.625 13.9375 C-26.14729577 11.37062307 -26.02695353 9.10781412 -25 5 C-23.625 3.0625 -23.625 3.0625 -22 2 C-20.68 2 -19.36 2 -18 2 C-18.33 3.98 -18.66 5.96 -19 8 C-16.68634745 8.23253889 -16.68634745 8.23253889 -14.625 5.6875 C-13.75875 4.800625 -12.8925 3.91375 -12 3 C-8.24108821 -0.75891179 -5.08837072 -0.41035248 0 0 Z M-22 15 C-23.32 15.99 -24.64 16.98 -26 18 C-24.35 18 -22.7 18 -21 18 C-20.875 23.75 -20.875 23.75 -22 26 C-24.0625 27.125 -24.0625 27.125 -26 28 C-25.34 28.66 -24.68 29.32 -24 30 C-21.49641128 29.51792644 -21.49641128 29.51792644 -19 28 C-17.67913623 24.54384941 -17.67913623 24.54384941 -17 21 C-16.67 20.34 -16.34 19.68 -16 19 C-16.99 18.67 -17.98 18.34 -19 18 C-20.6875 16.4375 -20.6875 16.4375 -22 15 Z M-28 21 C-28 22.98 -28 24.96 -28 27 C-27.34 26.67 -26.68 26.34 -26 26 C-26.33 24.35 -26.66 22.7 -27 21 C-27.33 21 -27.66 21 -28 21 Z " fill="#232D52" transform="translate(38,6)"/>
<path d="M0 0 C0.78246094 -0.02578125 1.56492187 -0.0515625 2.37109375 -0.078125 C4.5625 0.25 4.5625 0.25 6.31640625 1.55078125 C8.44153959 4.44869035 8.04675388 6.79969108 7.5625 10.25 C5.04863627 13.0596124 3.16941377 14.07298348 -0.4375 15.125 C-3.68257846 15.2602116 -5.55717329 14.69016336 -8.4375 13.25 C-8.4375 8.75944298 -7.70511762 5.54581527 -6.4375 1.25 C-4.11063547 0.08656773 -2.59028587 0.05104012 0 0 Z " fill="#EC7523" transform="translate(38.4375,24.75)"/>
<path d="M0 0 C3.62544051 -0.08063171 7.24910455 -0.14032292 10.875 -0.1875 C12.42380859 -0.22520508 12.42380859 -0.22520508 14.00390625 -0.26367188 C14.99003906 -0.27333984 15.97617188 -0.28300781 16.9921875 -0.29296875 C17.90339355 -0.3086792 18.81459961 -0.32438965 19.75341797 -0.34057617 C20.49479004 -0.22818604 21.23616211 -0.1157959 22 0 C24.20914 3.31371 24.22481553 4.3446021 24.125 8.1875 C24.10695312 9.08855469 24.08890625 9.98960938 24.0703125 10.91796875 C24.04710937 11.60503906 24.02390625 12.29210938 24 13 C22.68 13 21.36 13 20 13 C19.505 8.05 19.505 8.05 19 3 C17.35 3 15.7 3 14 3 C14 6.3 14 9.6 14 13 C12.68 13 11.36 13 10 13 C9.67 10.03 9.34 7.06 9 4 C7.35 3.67 5.7 3.34 4 3 C4 6.3 4 9.6 4 13 C2.68 13 1.36 13 0 13 C0 8.71 0 4.42 0 0 Z " fill="#ED7422" transform="translate(112,25)"/>
<path d="M0 0 C12.45780542 -0.37003382 12.45780542 -0.37003382 14.89453125 1.29296875 C16.75624219 4.1677662 16.35457006 6.6906794 16 10 C14.76953125 11.70703125 14.76953125 11.70703125 13 13 C10.73828125 13.29296875 10.73828125 13.29296875 8.3125 13.1875 C7.10013672 13.14689453 7.10013672 13.14689453 5.86328125 13.10546875 C5.24839844 13.07066406 4.63351563 13.03585938 4 13 C4 14.65 4 16.3 4 18 C2.68 18 1.36 18 0 18 C0 12.06 0 6.12 0 0 Z M4 3 C4 5.31 4 7.62 4 10 C6.91652174 10.16681109 6.91652174 10.16681109 10 10 C10.66 9.34 11.32 8.68 12 8 C11.59471099 5.21762345 11.59471099 5.21762345 10 3 C8.00041636 2.95919217 5.99954746 2.95745644 4 3 Z " fill="#ED7422" transform="translate(74,25)"/>
<path d="M0 0 C1.32 0 2.64 0 4 0 C4 1.65 4 3.3 4 5 C5.2375 4.9175 6.475 4.835 7.75 4.75 C10.82119775 4.76636517 11.85654719 4.91252877 14.5625 6.5625 C16 9 16 9 15.9375 12.625 C15 16 15 16 12 18 C7.98500069 18.26874159 4.02862593 18.08663712 0 18 C0 12.06 0 6.12 0 0 Z M4 8 C4 10.31 4 12.62 4 15 C6.89186786 16.33304698 6.89186786 16.33304698 9.1875 15.0625 C9.785625 14.711875 10.38375 14.36125 11 14 C11.042721 12.33388095 11.04063832 10.66617115 11 9 C9.87465895 7.64381501 9.87465895 7.64381501 6.9375 7.9375 C5.968125 7.958125 4.99875 7.97875 4 8 Z " fill="#192A55" transform="translate(163,20)"/>
<path d="M0 0 C0.86625 0.00386719 1.7325 0.00773437 2.625 0.01171875 C5 0.3125 5 0.3125 8 2.3125 C8 3.9625 8 5.6125 8 7.3125 C4.04 7.3125 0.08 7.3125 -4 7.3125 C-3.20396516 9.46930385 -3.20396516 9.46930385 -1.1875 10 C1.18819767 10.33938538 2.73335829 10.04106341 5 9.3125 C5.99 10.7975 5.99 10.7975 7 12.3125 C5.27415266 14.03834734 3.03790633 13.5658507 0.6875 13.625 C-2.92885072 13.582676 -4.59908391 13.54940496 -7.75 11.6875 C-9 9.3125 -9 9.3125 -8.9375 6.25 C-7.30792304 1.1439922 -5.30183066 -0.10256518 0 0 Z M-3 3.3125 C-3.33 3.9725 -3.66 4.6325 -4 5.3125 C-1.36 5.3125 1.28 5.3125 4 5.3125 C3.67 4.6525 3.34 3.9925 3 3.3125 C1.02 3.3125 -0.96 3.3125 -3 3.3125 Z " fill="#192A55" transform="translate(213,24.6875)"/>
<path d="M0 0 C1.62463842 -0.05395478 3.24978541 -0.09277195 4.875 -0.125 C5.77992188 -0.14820312 6.68484375 -0.17140625 7.6171875 -0.1953125 C10 0 10 0 12 2 C12.28634574 4.00442018 12.56923296 6.01101294 12.75390625 8.02734375 C12.96047055 10.2086702 12.96047055 10.2086702 14 13 C11.70858714 13.05384521 9.41681812 13.09272087 7.125 13.125 C5.21074219 13.15980469 5.21074219 13.15980469 3.2578125 13.1953125 C0 13 0 13 -2 11 C-1.875 8.5 -1.875 8.5 -1 6 C1.0625 4.6875 1.0625 4.6875 3 4 C1.68 3.67 0.36 3.34 -1 3 C-0.67 2.01 -0.34 1.02 0 0 Z M4 7 C3.01 8.485 3.01 8.485 2 10 C5.04913228 11.01111093 5.04913228 11.01111093 8 10 C8 9.01 8 8.02 8 7 C6.68 7 5.36 7 4 7 Z " fill="#ED7422" transform="translate(139,25)"/>
<path d="M0 0 C0.86625 -0.02835938 1.7325 -0.05671875 2.625 -0.0859375 C5 0.375 5 0.375 6.82421875 2.171875 C8.5859236 5.47287678 7.85404424 7.82743161 7 11.375 C4.50959058 13.86540942 3.56845643 13.69891014 0.125 13.75 C-3.23770133 13.66727073 -4.73488444 13.52913695 -7.6875 11.8125 C-9.57481508 8.30748628 -9.04621254 6.14136515 -8 2.375 C-4.80254858 0.24336572 -3.71242084 0.05524436 0 0 Z M-1 2.375 C-1.99 3.035 -2.98 3.695 -4 4.375 C-4.25030977 6.95880177 -4.25030977 6.95880177 -4 9.375 C-2.02 10.365 -2.02 10.365 0 11.375 C1.32 10.385 2.64 9.395 4 8.375 C3.80528889 6.42500871 3.80528889 6.42500871 3 4.375 C1.0162233 3.09063266 1.0162233 3.09063266 -1 2.375 Z " fill="#ED7422" transform="translate(65,24.625)"/>
<path d="M0 0 C1.32 0 2.64 0 4 0 C4.33 3.3 4.66 6.6 5 10 C6.65 9.67 8.3 9.34 10 9 C10.33 6.03 10.66 3.06 11 0 C12.32 0 13.64 0 15 0 C15 4.29 15 8.58 15 13 C5.0390625 13.29296875 5.0390625 13.29296875 2 13 C-0.20914 9.68629 -0.22481553 8.6553979 -0.125 4.8125 C-0.10695312 3.91144531 -0.08890625 3.01039062 -0.0703125 2.08203125 C-0.04710937 1.39496094 -0.02390625 0.70789063 0 0 Z " fill="#192A55" transform="translate(188,25)"/>
<path d="M0 0 C1.051875 -0.02126953 1.051875 -0.02126953 2.125 -0.04296875 C4 0.1875 4 0.1875 6 2.1875 C6 4.5625 6 4.5625 5 7.1875 C0.02702703 11.1875 0.02702703 11.1875 -4 11.1875 C-4.66 10.1975 -5.32 9.2075 -6 8.1875 C-8.05003955 6.99517387 -8.05003955 6.99517387 -10 6.1875 C-5.27769866 0.04850826 -5.27769866 0.04850826 0 0 Z " fill="#EB7322" transform="translate(34,5.8125)"/>
<path d="M0 0 C0.33 1.32 0.66 2.64 1 4 C2.65 4 4.3 4 6 4 C6 4.99 6 5.98 6 7 C4.35 7 2.7 7 1 7 C1.33 9.31 1.66 11.62 2 14 C3.65 14 5.3 14 7 14 C7 14.99 7 15.98 7 17 C5.72125 17.061875 4.4425 17.12375 3.125 17.1875 C2.04605469 17.23970703 2.04605469 17.23970703 0.9453125 17.29296875 C0.30335937 17.19628906 -0.33859375 17.09960938 -1 17 C-3.4294516 13.3558226 -3.16179575 11.28758728 -3 7 C-3.66 7 -4.32 7 -5 7 C-5 6.01 -5 5.02 -5 4 C-4.34 4 -3.68 4 -3 4 C-3 3.01 -3 2.02 -3 1 C-2.01 0.67 -1.02 0.34 0 0 Z " fill="#ED7422" transform="translate(95,21)"/>
<path d="M0 0 C1.32 0 2.64 0 4 0 C4.04898438 0.99902344 4.09796875 1.99804688 4.1484375 3.02734375 C4.22320312 4.31769531 4.29796875 5.60804687 4.375 6.9375 C4.44460937 8.22527344 4.51421875 9.51304688 4.5859375 10.83984375 C4.72257813 11.88269531 4.85921875 12.92554688 5 14 C5.66 14.33 6.32 14.66 7 15 C7 15.99 7 16.98 7 18 C4.625 18.125 4.625 18.125 2 18 C0 16 0 16 -0.1953125 12.3046875 C-0.182009 10.82799892 -0.15814835 9.35137642 -0.125 7.875 C-0.11146484 6.74384766 -0.11146484 6.74384766 -0.09765625 5.58984375 C-0.0740687 3.72642746 -0.03819719 1.86317407 0 0 Z " fill="#192A55" transform="translate(180,20)"/>
<path d="M0 0 C1.32 0 2.64 0 4 0 C4.04898438 0.99902344 4.09796875 1.99804688 4.1484375 3.02734375 C4.22320312 4.31769531 4.29796875 5.60804687 4.375 6.9375 C4.44460937 8.22527344 4.51421875 9.51304688 4.5859375 10.83984375 C4.72257813 11.88269531 4.85921875 12.92554688 5 14 C5.66 14.33 6.32 14.66 7 15 C7 15.99 7 16.98 7 18 C4.625 18.125 4.625 18.125 2 18 C0 16 0 16 -0.1953125 12.3046875 C-0.182009 10.82799892 -0.15814835 9.35137642 -0.125 7.875 C-0.11146484 6.74384766 -0.11146484 6.74384766 -0.09765625 5.58984375 C-0.0740687 3.72642746 -0.03819719 1.86317407 0 0 Z " fill="#ED7422" transform="translate(154,20)"/>
<path d="M0 0 C2.31 0 4.62 0 7 0 C7 4.29 7 8.58 7 13 C5.68 13 4.36 13 3 13 C3 9.7 3 6.4 3 3 C2.01 3 1.02 3 0 3 C0 2.01 0 1.02 0 0 Z " fill="#ED7422" transform="translate(102,25)"/>
<path d="M0 0 C1.75 1.375 1.75 1.375 2.5625 3.375 C2.75 5.375 2.75 5.375 1.75 7.375 C-3.72826087 7.74021739 -3.72826087 7.74021739 -6.125 6.0625 C-7.25 4.375 -7.25 4.375 -7.25 1.375 C-2.89285714 -0.80357143 -2.89285714 -0.80357143 0 0 Z " fill="#E97222" transform="translate(23.25,41.625)"/>
<path d="M0 0 C-0.1875 2.3125 -0.1875 2.3125 -1 5 C-5.03448276 8 -5.03448276 8 -8 8 C-7.63487253 5.2980567 -7.30130763 3.41609148 -5.6875 1.1875 C-4 0 -4 0 0 0 Z " fill="#E27024" transform="translate(20,8)"/>
<path d="M0 0 C1.32 0.33 2.64 0.66 4 1 C3.625 2.9375 3.625 2.9375 3 5 C2.01 5.495 2.01 5.495 1 6 C0.01 5.34 -0.98 4.68 -2 4 C-1.34 2.68 -0.68 1.36 0 0 Z " fill="#192A55" transform="translate(224,24)"/>
<path d="M0 0 C1.98 0.99 1.98 0.99 4 2 C4 3.32 4 4.64 4 6 C3.01 6 2.02 6 1 6 C0.67 4.02 0.34 2.04 0 0 Z " fill="#E57123" transform="translate(8,38)"/>
<path d="M0 0 C1.32 0.33 2.64 0.66 4 1 C4 1.99 4 2.98 4 4 C2.68 4 1.36 4 0 4 C0 2.68 0 1.36 0 0 Z " fill="#ED7422" transform="translate(105,20)"/>
</svg>
