<?xml version="1.0" encoding="UTF-8"?>
<svg version="1.1" xmlns="http://www.w3.org/2000/svg" width="389" height="201">
<path d="M0 0 C128.37 0 256.74 0 389 0 C389 66.33 389 132.66 389 201 C260.63 201 132.26 201 0 201 C0 134.67 0 68.34 0 0 Z " fill="#FEFEFE" transform="translate(0,0)"/>
<path d="M0 0 C12 0 12 0 15.25 1.5625 C17.67547804 4.94084442 17.65373541 6.932313 17 11 C15 13.4375 15 13.4375 13 15 C13.825 15.474375 14.65 15.94875 15.5 16.4375 C18.67156412 19.68835322 18.55893045 21.41538136 18.56640625 25.78125 C18 28 18 28 14 32 C9.38 32 4.76 32 0 32 C0 21.44 0 10.88 0 0 Z " fill="#242424" transform="translate(271,80)"/>
<path d="M0 0 C3.47060168 2.06759249 5.77725393 4.10944433 7 8 C7.48459952 13.23367486 6.82735806 16.55700877 4 21 C2.09872022 23.19378437 0.7676888 23.8703715 -2.08203125 24.3515625 C-6.53836052 24.63239254 -8.39996634 24.47502664 -12 21.625 C-15.77031381 16.67646313 -15.65900047 12.08916433 -15 6 C-11.21867609 -0.30220651 -6.9359714 -0.87599639 0 0 Z " fill="#F7F7F7" transform="translate(177,89)"/>
<path d="M0 0 C12 0 12 0 17 3 C18.60086627 6.20173254 18.49917089 9.52577059 18 13 C16.20636089 15.8100346 14.98119065 17.50940468 12 19 C10.29297265 19.06996014 8.58331997 19.08440154 6.875 19.0625 C5.26625 19.041875 3.6575 19.02125 2 19 C2 23.29 2 27.58 2 32 C1.34 32 0.68 32 0 32 C0 21.44 0 10.88 0 0 Z " fill="#F1F1F1" transform="translate(141,80)"/>
<path d="M0 0 C3.9594123 0.27236204 6.95611661 1.10160122 10.6796875 2.44921875 C11.98722912 2.91183872 13.29587301 3.37135229 14.60546875 3.828125 C15.28561035 4.06547363 15.96575195 4.30282227 16.66650391 4.54736328 C21.05962873 6.01508231 25.52943165 7.2417558 29.99365234 8.47338867 C39.80071576 11.25774701 39.80071576 11.25774701 42.8046875 14.26171875 C43.04667614 18.35865983 43.0331976 22.45900307 43.04492188 26.5625 C43.05461588 28.62150648 43.08562033 30.67950982 43.1171875 32.73828125 C43.12492187 34.67960937 43.12492187 34.67960937 43.1328125 36.66015625 C43.14683105 38.44945557 43.14683105 38.44945557 43.16113281 40.27490234 C42.8046875 43.26171875 42.8046875 43.26171875 41.41186523 45.15600586 C38.43302806 47.20539878 35.30777541 46.43400176 31.8046875 46.26171875 C31.4746875 45.27171875 31.1446875 44.28171875 30.8046875 43.26171875 C33.7746875 43.26171875 36.7446875 43.26171875 39.8046875 43.26171875 C39.4746875 34.02171875 39.1446875 24.78171875 38.8046875 15.26171875 C28.80305167 11.85030808 18.89050484 8.61678147 8.6484375 6.0234375 C5.8046875 5.26171875 5.8046875 5.26171875 3.8046875 4.26171875 C1.8246875 4.26171875 -0.1553125 4.26171875 -2.1953125 4.26171875 C-2.5253125 10.86171875 -2.8553125 17.46171875 -3.1953125 24.26171875 C-3.8553125 24.26171875 -4.5153125 24.26171875 -5.1953125 24.26171875 C-5.25319034 20.63678541 -5.2888667 17.01197018 -5.3203125 13.38671875 C-5.33707031 12.35417969 -5.35382813 11.32164063 -5.37109375 10.2578125 C-5.37753906 9.27167969 -5.38398437 8.28554687 -5.390625 7.26953125 C-5.40109863 6.3583252 -5.41157227 5.44711914 -5.42236328 4.50830078 C-5.03667257 0.69203632 -3.66541639 0.30022359 0 0 Z " fill="#1C1C1C" transform="translate(75.1953125,71.73828125)"/>
<path d="M0 0 C2.875 2.0625 2.875 2.0625 5 5 C5.33 7.31 5.66 9.62 6 12 C0.39 12 -5.22 12 -11 12 C-9.7284644 18.59529756 -9.7284644 18.59529756 -7 21 C-3.15541573 21.21358801 0.31620978 21.17881287 4 20 C3.67 20.99 3.34 21.98 3 23 C-0.76777835 24.25592612 -4.11293659 24.87111214 -8 24 C-11.48719678 21.65807206 -13.58245562 18.85646657 -14.5078125 14.7421875 C-14.7787614 9.4135257 -13.5217358 6.12546194 -10 2 C-6.24952518 -0.50031654 -4.44143734 -0.53603554 0 0 Z " fill="#353535" transform="translate(233,89)"/>
<path d="M0 0 C1.32 0 2.64 0 4 0 C5.48679725 2.97359449 5.11112605 5.66299179 5.09765625 8.9765625 C5.0962413 9.66181 5.09482635 10.3470575 5.09336853 11.05307007 C5.08776675 13.24375761 5.07521406 15.4343433 5.0625 17.625 C5.05748522 19.10937352 5.05292228 20.59374865 5.04882812 22.078125 C5.03779677 25.71878315 5.02053099 29.35938164 5 33 C3.34385343 33.38218767 1.67542976 33.71395102 0 34 C-1.90445326 32.09554674 -1.13058862 28.71662463 -1.1328125 26.19140625 C-1.13376923 25.50948715 -1.13472595 24.82756805 -1.13571167 24.12498474 C-1.13639339 22.67992053 -1.13453969 21.23485328 -1.13037109 19.78979492 C-1.12503084 17.57528807 -1.13031205 15.36098481 -1.13671875 13.14648438 C-1.13605781 11.74479122 -1.13477631 10.34309819 -1.1328125 8.94140625 C-1.13168457 7.65951416 -1.13055664 6.37762207 -1.12939453 5.05688477 C-1 2 -1 2 0 0 Z " fill="#040404" transform="translate(97,89)"/>
<path d="M0 0 C0.66 0 1.32 0 2 0 C2.64964023 1.89453221 3.29455115 3.79068649 3.9375 5.6875 C4.29714844 6.74324219 4.65679687 7.79898438 5.02734375 8.88671875 C5.87206518 11.59050583 6.50893785 14.21386842 7 17 C8.89015287 14.1647707 9.61539763 12.2307217 10.5 9 C11.38460237 5.7692783 12.10984713 3.8352293 14 1 C14.66 1 15.32 1 16 1 C17.65 6.28 19.3 11.56 21 17 C21.61875 15.288125 22.2375 13.57625 22.875 11.8125 C24.18773455 8.18060107 25.54767747 4.57847037 27 1 C27.66 1.33 28.32 1.66 29 2 C28.08259741 5.31840673 27.13777915 8.6283719 26.1875 11.9375 C25.92646484 12.88302734 25.66542969 13.82855469 25.39648438 14.80273438 C25.13544922 15.70185547 24.87441406 16.60097656 24.60546875 17.52734375 C24.36981201 18.35999756 24.13415527 19.19265137 23.89135742 20.05053711 C23.59720947 20.69385986 23.30306152 21.33718262 23 22 C22.01 22.33 21.02 22.66 20 23 C18.35 18.05 16.7 13.1 15 8 C13.37413403 11.25173194 12.09284601 14.34003119 10.875 17.75 C10.34519531 19.22726563 10.34519531 19.22726563 9.8046875 20.734375 C9.53914062 21.48203125 9.27359375 22.2296875 9 23 C8.01 23 7.02 23 6 23 C0.44419134 7.25512528 0.44419134 7.25512528 0 0 Z " fill="#313131" transform="translate(187,89)"/>
<path d="M0 0 C1.5675 -0.061875 3.135 -0.12375 4.75 -0.1875 C6.07257813 -0.23970703 6.07257813 -0.23970703 7.421875 -0.29296875 C10.51205282 0.05818782 11.81735287 0.80731771 14 3 C14.74021854 8.92174833 14.74021854 8.92174833 12.828125 11.70703125 C9.17210987 14.29280264 4.27955664 13.15104318 0 13 C0 8.71 0 4.42 0 0 Z " fill="#F3F3F3" transform="translate(273,97)"/>
<path d="M0 0 C1.65 0.33 3.3 0.66 5 1 C5 9.25 5 17.5 5 26 C3.35 26.33 1.7 26.66 0 27 C-1.74545605 25.25454395 -1.1302316 22.83875783 -1.1328125 20.46875 C-1.13410156 19.34855469 -1.13539062 18.22835937 -1.13671875 17.07421875 C-1.13285156 15.89472656 -1.12898438 14.71523437 -1.125 13.5 C-1.12886719 12.32050781 -1.13273437 11.14101562 -1.13671875 9.92578125 C-1.13542969 8.80558594 -1.13414063 7.68539062 -1.1328125 6.53125 C-1.13168457 5.49548828 -1.13055664 4.45972656 -1.12939453 3.39257812 C-1 1 -1 1 0 0 Z " fill="#090909" transform="translate(88,93)"/>
<path d="M0 0 C12 0 12 0 17 3 C18.60086627 6.20173254 18.49917089 9.52577059 18 13 C16.20636089 15.8100346 14.98119065 17.50940468 12 19 C10.29297265 19.06996014 8.58331997 19.08440154 6.875 19.0625 C5.26625 19.041875 3.6575 19.02125 2 19 C2 23.29 2 27.58 2 32 C1.34 32 0.68 32 0 32 C0 21.44 0 10.88 0 0 Z M2 2 C2 6.95 2 11.9 2 17 C8.83888728 17.7308714 8.83888728 17.7308714 14.6875 14.9375 C16.40553017 11.09238485 16.18896834 9.01276815 15 5 C13.59869315 2.86424561 13.59869315 2.86424561 11 2 C7.95234487 1.76879858 5.06631223 1.86472152 2 2 Z " fill="#171717" transform="translate(141,80)"/>
<path d="M0 0 C8.21900826 -0.48347107 8.21900826 -0.48347107 11.625 1.625 C13 4 13 4 13.0625 7.0625 C12 10 12 10 9.875 11.875 C6.42414688 13.22533383 3.67448337 13.21614608 0 13 C0 8.71 0 4.42 0 0 Z " fill="#E8E8E8" transform="translate(273,82)"/>
<path d="M0 0 C3.47060168 2.06759249 5.77725393 4.10944433 7 8 C7.48459952 13.23367486 6.82735806 16.55700877 4 21 C2.09872022 23.19378437 0.7676888 23.8703715 -2.08203125 24.3515625 C-6.53836052 24.63239254 -8.39996634 24.47502664 -12 21.625 C-15.77031381 16.67646313 -15.65900047 12.08916433 -15 6 C-11.21867609 -0.30220651 -6.9359714 -0.87599639 0 0 Z M-13 7 C-13.89577377 11.83559292 -13.63168638 15.6839867 -11.5 20.125 C-8.44431541 22.41676344 -6.64172055 22.60700227 -2.90234375 22.36328125 C-0.26943843 21.86048824 1.18535005 20.95982195 3 19 C4.73646455 13.79060636 4.93758685 8.91423983 2.5 3.9375 C-0.3622212 1.71927857 -2.4066965 1.2605474 -6.02734375 1.53125 C-9.69806979 2.40350173 -10.99308022 3.86418785 -13 7 Z " fill="#303030" transform="translate(177,89)"/>
<path d="M0 0 C3.53571429 0.53571429 3.53571429 0.53571429 5 2 C5.09986975 4.84335048 5.13877881 7.65697163 5.125 10.5 C5.12886719 11.29792969 5.13273437 12.09585938 5.13671875 12.91796875 C5.12660767 18.87339233 5.12660767 18.87339233 4 20 C2.33382885 20.04063832 0.66611905 20.042721 -1 20 C-2.57977708 16.84044583 -2.18447084 13.46536183 -2.1875 10 C-2.19974609 9.26265625 -2.21199219 8.5253125 -2.22460938 7.765625 C-2.22987395 5.84229942 -2.12203447 3.91945737 -2 2 C-1.34 1.34 -0.68 0.68 0 0 Z " fill="#1A1A1A" transform="translate(79,96)"/>
<path d="M0 0 C3.875 0.875 3.875 0.875 5 2 C5.24198864 6.09694108 5.2285101 10.19728432 5.24023438 14.30078125 C5.24992838 16.35978773 5.28093283 18.41779107 5.3125 20.4765625 C5.31765625 21.77078125 5.3228125 23.065 5.328125 24.3984375 C5.34214355 26.18773682 5.34214355 26.18773682 5.35644531 28.01318359 C5 31 5 31 3.60717773 32.89428711 C0.62834056 34.94368003 -2.49691209 34.17228301 -6 34 C-6.495 32.515 -6.495 32.515 -7 31 C-4.03 31 -1.06 31 2 31 C1.88162872 27.06710455 1.75737207 23.13444334 1.62768555 19.2019043 C1.56312994 17.20696681 1.5032217 15.21188071 1.44335938 13.21679688 C1.40146484 11.96318359 1.35957031 10.70957031 1.31640625 9.41796875 C1.27974854 8.26063232 1.24309082 7.1032959 1.20532227 5.91088867 C1.11671491 2.9356554 1.11671491 2.9356554 0 0 Z " fill="#272727" transform="translate(113,84)"/>
<path d="M0 0 C0.66 0 1.32 0 2 0 C2 10.89 2 21.78 2 33 C1.01 32.67 0.02 32.34 -1 32 C-1.02465504 27.60343827 -1.04283842 23.2069128 -1.05493164 18.81030273 C-1.05997121 17.31355082 -1.06680287 15.81680384 -1.07543945 14.32006836 C-1.08752159 12.17300193 -1.09323191 10.02600038 -1.09765625 7.87890625 C-1.10289307 6.5854126 -1.10812988 5.29191895 -1.11352539 3.95922852 C-1 1 -1 1 0 0 Z " fill="#484848" transform="translate(297,80)"/>
<path d="M0 0 C1.9375 1.1875 1.9375 1.1875 3 3 C3 4.65 3 6.3 3 8 C-1.62 8 -6.24 8 -11 8 C-10 3 -10 3 -8.875 1.1875 C-5.89044769 -0.70271646 -3.43459566 -0.36799239 0 0 Z " fill="#F4F4F4" transform="translate(233,91)"/>
<path d="M0 0 C3.53571429 0.53571429 3.53571429 0.53571429 5 2 C5.1245486 3.64230364 5.17568524 5.29052276 5.1875 6.9375 C5.20167969 7.83339844 5.21585937 8.72929688 5.23046875 9.65234375 C5 12 5 12 3 14 C0.375 13.625 0.375 13.625 -2 13 C-2.05391993 11.20866022 -2.09275571 9.41686101 -2.125 7.625 C-2.14820312 6.62726563 -2.17140625 5.62953125 -2.1953125 4.6015625 C-2 2 -2 2 0 0 Z " fill="#1A1A1A" transform="translate(70,99)"/>
<path d="M0 0 C1.485 0.99 1.485 0.99 3 2 C3.66 1.34 4.32 0.68 5 0 C7.625 -0.125 7.625 -0.125 10 0 C10 0.66 10 1.32 10 2 C9.236875 2.04125 8.47375 2.0825 7.6875 2.125 C4.7650304 2.75874045 4.7650304 2.75874045 3.375 5.59375 C1.86116741 9.34392618 1.50251168 12.34675247 1.3125 16.375 C1.21388672 18.24285156 1.21388672 18.24285156 1.11328125 20.1484375 C1.07589844 21.08945313 1.03851563 22.03046875 1 23 C0.34 23 -0.32 23 -1 23 C-1.02887512 19.35418313 -1.04675585 15.70839537 -1.0625 12.0625 C-1.07087891 11.02158203 -1.07925781 9.98066406 -1.08789062 8.90820312 C-1.09272461 7.42416992 -1.09272461 7.42416992 -1.09765625 5.91015625 C-1.10289307 4.99371338 -1.10812988 4.07727051 -1.11352539 3.13305664 C-1 1 -1 1 0 0 Z " fill="#323232" transform="translate(245,89)"/>
<path d="M0 0 C2.57311811 2.25318015 2.9678715 2.71619825 3.375 6.3125 C2.88698259 11.11133789 1.52884335 14.23594999 -1.625 17.875 C-5.3155694 19.62316445 -8.98503847 19.2316324 -13 19 C-10 17 -10 17 -6.4375 16.125 C-3.01258046 15.38919421 -3.01258046 15.38919421 -1.82421875 13.2890625 C-0.84502682 10.56960055 -0.58076468 8.13070552 -0.375 5.25 C-0.30023438 4.26515625 -0.22546875 3.2803125 -0.1484375 2.265625 C-0.09945312 1.51796875 -0.05046875 0.7703125 0 0 Z " fill="#3C3C3C" transform="translate(181,94)"/>
<path d="M0 0 C0.66 0.33 1.32 0.66 2 1 C1.08259741 4.31840673 0.13777915 7.6283719 -0.8125 10.9375 C-1.20405273 12.35579102 -1.20405273 12.35579102 -1.60351562 13.80273438 C-1.86455078 14.70185547 -2.12558594 15.60097656 -2.39453125 16.52734375 C-2.63018799 17.35999756 -2.86584473 18.19265137 -3.10864258 19.05053711 C-3.40279053 19.69385986 -3.69693848 20.33718262 -4 21 C-4.99 21.33 -5.98 21.66 -7 22 C-7 21.01 -7 20.02 -7 19 C-6.34 19 -5.68 19 -5 19 C-4.896875 18.071875 -4.79375 17.14375 -4.6875 16.1875 C-2.78917464 2.78917464 -2.78917464 2.78917464 0 0 Z " fill="#232323" transform="translate(214,90)"/>
<path d="M0 0 C4.3322929 -0.4247346 6.34962488 -0.47048413 9.9375 2.125 C12.30954571 5.43148796 12.46233492 7.0239197 12 11 C11.34 11 10.68 11 10 11 C9.690625 9.865625 9.38125 8.73125 9.0625 7.5625 C8.37075469 4.21224901 8.37075469 4.21224901 7 3 C4.67182036 2.63239269 2.3381615 2.29758419 0 2 C0 1.34 0 0.68 0 0 Z " fill="#202020" transform="translate(226,89)"/>
<path d="M0 0 C1.77007714 -0.08114106 3.54122098 -0.13925505 5.3125 -0.1875 C6.29863281 -0.22230469 7.28476562 -0.25710937 8.30078125 -0.29296875 C11 0 11 0 12.84375 1.28125 C14.70470674 4.04753705 14.18268024 6.77264913 14 10 C13.01 10.495 13.01 10.495 12 11 C11.34 8.36 10.68 5.72 10 3 C6.7 2.34 3.4 1.68 0 1 C0 0.67 0 0.34 0 0 Z " fill="#1B1B1B" transform="translate(274,81)"/>
<path d="M0 0 C0.66 0.99 1.32 1.98 2 3 C-0.40615652 5.65506927 -2.17959767 6.92164697 -5.78125 7.265625 C-8.53033855 7.25145444 -11.25655321 7.17296687 -14 7 C-11.58707195 4.58707195 -10.85882638 4.76572986 -7.5625 4.625 C-3.80160769 4.35741521 -3.80160769 4.35741521 -0.9375 1.9375 C-0.628125 1.298125 -0.31875 0.65875 0 0 Z " fill="#2D2D2D" transform="translate(156,92)"/>
<path d="M0 0 C2.375 -0.1875 2.375 -0.1875 5 0 C7.67927341 4.01891012 7.15601248 6.24161923 7 11 C6.01 11.495 6.01 11.495 5 12 C4.89042969 11.38511719 4.78085938 10.77023438 4.66796875 10.13671875 C4.43013672 8.92435547 4.43013672 8.92435547 4.1875 7.6875 C4.03667969 6.88699219 3.88585937 6.08648437 3.73046875 5.26171875 C2.92427764 2.76554413 1.97947998 1.67577894 0 0 Z " fill="#202020" transform="translate(152,82)"/>
<path d="M0 0 C-0.33 0.99 -0.66 1.98 -1 3 C-4.95659266 4.31886422 -7.82339427 4.26518132 -12 4 C-12.66 3.01 -13.32 2.02 -14 1 C-12.95199219 1.01740234 -12.95199219 1.01740234 -11.8828125 1.03515625 C-10.97273437 1.04417969 -10.06265625 1.05320312 -9.125 1.0625 C-7.76761719 1.07990234 -7.76761719 1.07990234 -6.3828125 1.09765625 C-3.92124681 0.99677241 -2.42285583 0 0 0 Z " fill="#2C2C2C" transform="translate(237,109)"/>
<path d="M0 0 C2.31 0 4.62 0 7 0 C7.33 0.99 7.66 1.98 8 3 C4.7 3.33 1.4 3.66 -2 4 C-1.34 2.68 -0.68 1.36 0 0 Z " fill="#222222" transform="translate(72,72)"/>
<path d="M0 0 C0.33 0 0.66 0 1 0 C1.268125 1.2375 1.53625 2.475 1.8125 3.75 C3.05694568 8.71025532 4.70213524 11.13475683 9 14 C3.58064516 13.63870968 3.58064516 13.63870968 1.125 10.9375 C-0.35947778 7.06136357 -0.21026069 4.1351269 0 0 Z " fill="#121212" transform="translate(162,98)"/>
<path d="M0 0 C3.96 0.99 3.96 0.99 8 2 C7.67 2.99 7.34 3.98 7 5 C2.545 4.01 2.545 4.01 -2 3 C-1.34 2.01 -0.68 1.02 0 0 Z " fill="#353535" transform="translate(106,81)"/>
<path d="M0 0 C-1 3 -1 3 -3 4 C-4.54023996 4.06950541 -6.08334988 4.08452357 -7.625 4.0625 C-8.85089844 4.04896484 -8.85089844 4.04896484 -10.1015625 4.03515625 C-11.04128906 4.01775391 -11.04128906 4.01775391 -12 4 C-8.36043372 1.57362248 -4.44144233 0 0 0 Z " fill="#353535" transform="translate(180,109)"/>
<path d="M0 0 C0.66 0 1.32 0 2 0 C3.83691257 3.78187881 4.15837626 5.94568308 3 10 C-0.00617269 6.99382731 0.40414684 4.17618402 0 0 Z " fill="#363636" transform="translate(187,89)"/>
<path d="M0 0 C2.6875 -0.3125 2.6875 -0.3125 6 0 C8.875 2.5 8.875 2.5 11 5 C10.34 5.66 9.68 6.32 9 7 C8.62875 6.38125 8.2575 5.7625 7.875 5.125 C5.51377094 2.4489404 3.39868348 1.9063156 0 1 C0 0.67 0 0.34 0 0 Z " fill="#272727" transform="translate(171,89)"/>
<path d="M0 0 C0.66 0 1.32 0 2 0 C1.71125 0.556875 1.4225 1.11375 1.125 1.6875 C-0.0413253 4.08494645 -1.0339881 6.51596939 -2 9 C-2.66 7.68 -3.32 6.36 -4 5 C-2.71937515 3.2925002 -1.38232443 1.62626404 0 0 Z " fill="#2D2D2D" transform="translate(224,90)"/>
</svg>
