<?xml version="1.0" standalone="no"?>
<!DOCTYPE svg PUBLIC "-//W3C//DTD SVG 20010904//EN"
 "http://www.w3.org/TR/2001/REC-SVG-20010904/DTD/svg10.dtd">
<svg version="1.0" xmlns="http://www.w3.org/2000/svg"
 width="500.000000pt" height="500.000000pt" viewBox="0 0 500.000000 500.000000"
 preserveAspectRatio="xMidYMid meet">

<g transform="translate(0.000000,500.000000) scale(0.100000,-0.100000)"
fill="#000000" stroke="none">
<path d="M2305 4874 c-476 -50 -882 -207 -1246 -480 -425 -321 -741 -803 -870
-1329 -51 -211 -64 -318 -64 -565 0 -247 13 -354 64 -565 43 -175 93 -311 176
-480 347 -710 1001 -1187 1800 -1312 153 -24 517 -24 670 0 504 79 948 294
1304 633 328 312 564 719 672 1159 51 209 63 318 64 560 0 284 -29 478 -107
723 l-29 93 39 53 c22 29 54 67 72 84 l31 32 -17 36 c-24 49 -54 68 -87 53
-21 -10 -30 -8 -56 12 -28 21 -35 22 -64 11 -26 -10 -34 -10 -40 0 -4 7 -37
64 -74 125 -361 611 -979 1025 -1698 1139 -96 15 -454 27 -540 18z m475 -154
c538 -67 1075 -356 1416 -762 130 -156 261 -349 249 -368 -4 -6 -24 -10 -46
-10 -39 0 -47 -6 -151 -112 -60 -62 -153 -169 -206 -238 -52 -69 -100 -131
-107 -138 -8 -8 -3 35 13 116 l26 128 -40 110 -41 109 -44 13 c-24 7 -64 19
-89 27 -28 9 -48 11 -56 4 -7 -6 -27 -2 -59 12 l-47 21 -23 -22 c-22 -20 -22
-28 -22 -178 0 -86 -5 -186 -12 -222 -6 -36 -11 -164 -11 -285 0 -183 -3 -224
-16 -243 -8 -12 -13 -26 -10 -31 9 -14 -24 -36 -48 -33 -15 2 -38 -14 -74 -52
-59 -61 -202 -254 -202 -273 0 -6 -14 -23 -31 -37 -35 -30 -44 -55 -54 -157
-6 -61 -12 -80 -36 -107 -38 -43 -38 -83 -1 -112 54 -43 128 -15 252 95 46 41
91 75 98 75 8 0 49 34 91 75 57 55 82 73 96 69 14 -3 32 7 59 35 l39 40 51
-46 c28 -25 60 -60 71 -78 20 -32 51 -60 130 -120 78 -60 96 -68 136 -62 26 3
51 -1 78 -15 64 -31 145 -27 228 12 68 31 68 32 46 49 l-22 18 49 23 c27 13
51 28 53 35 3 6 -20 32 -52 57 -158 129 -295 269 -325 333 -9 19 -21 35 -26
35 -5 0 -17 14 -25 30 l-16 31 98 102 c139 145 255 276 308 349 54 73 78 92
105 83 15 -5 23 2 38 31 l19 38 31 -130 c42 -177 49 -220 63 -393 24 -310 -31
-670 -148 -966 -208 -525 -593 -943 -1098 -1191 -226 -111 -468 -184 -715
-215 -122 -16 -418 -16 -540 0 -429 55 -833 231 -1168 509 -371 307 -640 752
-746 1232 -38 173 -50 287 -50 480 0 193 12 307 50 480 38 173 97 338 178 505
222 453 568 799 1021 1021 273 134 490 192 850 228 62 6 321 -3 415 -14z m888
-1180 c80 -57 122 -149 128 -275 2 -44 6 -97 10 -118 3 -21 2 -43 -4 -50 -5
-7 -17 -47 -26 -89 -14 -63 -15 -84 -5 -117 l12 -40 35 27 c50 38 237 247 340
379 48 62 95 112 104 113 9 0 30 11 46 25 17 14 41 25 54 25 16 0 39 15 67 45
23 25 46 45 50 45 27 0 12 -24 -65 -101 -133 -134 -85 -121 56 15 65 64 127
116 136 116 15 0 15 -3 -4 -23 -12 -13 -22 -32 -22 -42 0 -17 2 -16 25 5 37
35 30 16 -16 -46 -62 -81 -37 -79 37 4 36 39 71 72 77 72 6 0 -3 -15 -20 -32
-16 -18 -49 -60 -73 -93 -60 -84 -109 -134 -148 -151 -21 -8 -38 -25 -45 -44
-6 -16 -19 -32 -28 -35 -9 -3 -30 -27 -47 -53 -57 -88 -191 -237 -480 -535
l-105 -107 -52 16 c-45 14 -56 24 -87 73 -20 31 -39 71 -43 88 -6 32 6 378 25
668 6 92 5 157 -2 188 -17 83 2 96 70 47z m1012 5 c-7 -8 -17 -15 -22 -15 -6
0 -5 7 2 15 7 8 17 15 22 15 6 0 5 -7 -2 -15z m-210 -339 c0 -3 -4 -8 -10 -11
-5 -3 -10 -1 -10 4 0 6 5 11 10 11 6 0 10 -2 10 -4z m-883 -688 c38 -61 41
-64 113 -87 l74 -23 63 68 c57 63 62 67 63 43 0 -15 6 -29 14 -32 7 -3 24 -36
37 -73 13 -37 31 -69 39 -71 9 -2 28 -23 42 -46 25 -39 166 -182 251 -254 20
-18 37 -34 37 -37 0 -9 -54 -16 -85 -10 -19 3 -65 26 -102 51 -59 39 -73 44
-107 40 -35 -5 -46 -1 -93 36 -30 23 -56 52 -59 64 -3 12 -31 44 -61 70 -31
26 -68 64 -83 84 l-27 38 -49 -50 c-31 -32 -57 -49 -72 -49 -17 0 -50 -25
-106 -79 -44 -43 -90 -81 -102 -85 -11 -3 -60 -42 -109 -86 -77 -70 -147 -112
-161 -97 -2 2 28 36 68 75 40 39 69 74 65 78 -4 4 -23 -8 -42 -26 l-35 -34 0
40 c1 68 17 115 53 153 19 20 44 55 56 78 16 33 25 40 41 36 15 -4 40 14 105
80 47 46 85 93 85 103 0 14 36 64 46 64 1 0 19 -28 41 -62z m-167 -67 c0 -12
-20 -25 -27 -18 -7 7 6 27 18 27 5 0 9 -4 9 -9z m-40 -39 c0 -12 -59 -66 -65
-60 -7 7 43 68 56 68 5 0 9 -4 9 -8z m685 -354 c14 -6 25 -15 25 -20 0 -16
-37 -8 -55 12 -20 22 -9 26 30 8z"/>
<path d="M1141 3513 c-20 -10 -48 -39 -67 -69 -19 -29 -39 -56 -45 -60 -6 -4
-28 -43 -49 -87 l-38 -80 -78 -41 c-63 -33 -83 -49 -99 -79 -11 -22 -35 -54
-54 -73 -30 -31 -33 -39 -28 -76 3 -22 19 -60 36 -83 17 -24 31 -53 31 -65 0
-12 -22 -69 -49 -128 -33 -70 -48 -116 -45 -132 3 -14 -6 -59 -18 -100 -21
-68 -27 -77 -61 -93 -31 -16 -37 -24 -37 -51 0 -27 -6 -35 -32 -48 -30 -14
-34 -22 -45 -79 l-12 -64 45 -72 c83 -133 128 -163 244 -163 43 0 82 -6 100
-15 34 -18 36 -16 45 52 6 47 9 52 25 43 29 -15 40 -12 40 13 0 48 12 64 68
91 215 105 635 396 629 436 -3 27 14 40 54 40 32 0 46 7 77 38 39 39 187 241
205 280 13 29 -5 145 -32 208 -44 98 -155 179 -264 191 -29 3 -64 15 -80 25
-21 15 -28 16 -32 6 -4 -10 -33 -13 -115 -13 l-110 0 0 46 c0 37 -8 58 -40
108 -71 110 -102 127 -169 94z m30 -175 c61 -84 71 -114 60 -169 -6 -28 -11
-52 -11 -54 0 -3 56 -2 125 2 112 5 125 4 125 -10 0 -19 35 -23 45 -6 5 6 27
8 63 3 145 -17 236 -84 272 -201 33 -106 29 -126 -43 -223 -35 -47 -75 -91
-90 -97 -28 -13 -36 -6 -15 15 9 9 9 12 -2 12 -23 0 -123 -84 -105 -88 25 -6
18 -14 -56 -72 -188 -147 -341 -245 -549 -354 l-135 -71 -8 -51 -8 -51 -66 -6
c-36 -2 -80 -1 -98 4 -42 12 -92 62 -137 137 -34 56 -36 63 -26 101 9 35 17
44 53 60 24 11 50 30 59 43 24 37 77 208 82 264 2 33 19 83 49 146 56 118 57
148 10 214 -44 61 -44 86 -2 117 43 32 124 67 141 61 18 -7 45 39 101 167 67
155 110 183 166 107z"/>
<path d="M1427 2904 c-94 -17 -171 -42 -286 -94 -81 -37 -86 -41 -89 -72 -2
-18 -10 -38 -18 -45 -10 -7 -12 -13 -5 -18 19 -11 13 -56 -8 -62 -13 -3 -17
-11 -13 -25 3 -12 -8 -58 -24 -104 -15 -46 -25 -86 -22 -90 8 -7 256 125 308
164 19 15 43 25 52 24 12 -2 16 1 12 11 -6 17 12 32 21 17 11 -18 26 -10 88
48 34 32 77 64 95 72 51 20 120 120 122 178 0 17 -131 15 -233 -4z m81 -84
c-32 -38 -48 -49 -64 -46 -13 4 -37 -6 -66 -27 -25 -18 -65 -46 -89 -63 -24
-17 -75 -47 -112 -68 l-68 -37 7 28 c4 15 15 50 25 76 11 26 19 56 19 66 0 35
236 113 363 120 l28 1 -43 -50z"/>
<path d="M1710 2640 c0 -5 6 -10 14 -10 8 0 18 5 21 10 3 6 -3 10 -14 10 -12
0 -21 -4 -21 -10z"/>
<path d="M1498 2472 c-26 -15 -37 -32 -22 -32 12 0 64 34 64 42 0 12 -12 9
-42 -10z"/>
<path d="M1296 2341 c-71 -43 -133 -86 -138 -95 -5 -9 -19 -16 -31 -16 -12 0
-28 -4 -35 -9 -10 -6 -6 -10 15 -14 24 -5 54 11 193 104 190 126 188 147 -4
30z"/>
<path d="M1007 2160 l-42 -40 45 19 c31 14 45 26 46 41 1 11 -1 20 -3 20 -2 0
-23 -18 -46 -40z"/>
<path d="M891 2099 c-18 -11 -31 -22 -28 -25 7 -8 55 17 61 32 7 18 7 18 -33
-7z"/>
<path d="M2496 3445 c-16 -8 -57 -42 -93 -75 -51 -48 -70 -60 -97 -60 -29 0
-35 -5 -56 -50 -13 -27 -29 -50 -35 -50 -22 0 -56 -79 -64 -152 -8 -66 -20
-95 -119 -289 -61 -119 -123 -255 -137 -303 -25 -79 -27 -97 -22 -199 5 -127
22 -182 77 -254 75 -98 177 -144 338 -151 122 -5 182 5 352 60 170 55 205 73
231 117 12 20 34 50 49 66 34 37 43 65 31 97 -8 21 -5 27 20 42 36 21 52 57
40 90 -12 31 -43 38 -92 20 -37 -13 -42 -12 -68 7 l-28 21 -87 -31 c-96 -34
-231 -70 -286 -77 -19 -2 -58 -8 -87 -13 -70 -11 -115 -4 -109 18 2 9 10 40
16 69 7 29 19 56 29 61 28 14 153 42 343 75 l182 32 13 40 c7 22 23 44 35 49
14 6 28 30 40 65 16 49 17 56 3 66 -8 6 -15 15 -15 21 0 5 -14 31 -31 57 -16
27 -29 49 -27 50 2 1 30 10 63 20 114 35 195 86 195 123 0 8 16 29 35 47 22
21 35 43 35 58 0 29 -28 58 -56 58 -11 0 -24 4 -30 9 -12 12 -116 41 -147 41
-14 0 -27 7 -31 15 -4 11 -22 15 -75 15 l-69 0 5 79 6 79 -54 15 c-139 40
-180 44 -223 22z m111 -160 l52 -15 -6 -38 c-3 -20 -12 -52 -19 -71 -8 -18
-12 -37 -9 -41 3 -5 43 -11 90 -15 69 -6 88 -11 96 -26 7 -14 16 -18 35 -13
29 7 134 -14 134 -27 0 -10 -65 -44 -102 -53 -24 -5 -41 -36 -20 -36 6 0 127
45 175 65 30 13 19 -12 -15 -33 -62 -37 -180 -72 -382 -113 -110 -23 -206 -45
-213 -51 -25 -20 -92 -138 -79 -138 8 0 70 16 138 36 67 20 145 37 172 38 45
1 51 -2 87 -43 22 -24 39 -53 39 -65 0 -12 4 -26 10 -32 15 -15 0 -54 -24 -59
-11 -2 -89 -16 -172 -30 -183 -32 -326 -67 -360 -90 -14 -9 -34 -35 -45 -58
-23 -53 -63 -222 -56 -240 10 -25 92 -39 158 -27 44 8 64 8 74 0 9 -8 17 -7
28 4 13 14 18 13 40 -4 14 -11 32 -20 39 -20 8 0 106 29 219 64 112 36 205 64
206 62 9 -9 -42 -37 -110 -61 l-78 -28 28 -18 27 -18 -24 -10 c-14 -5 -94 -29
-178 -52 -111 -31 -148 -46 -136 -52 25 -14 85 -1 252 54 84 28 156 49 159 46
32 -32 -293 -151 -467 -172 -77 -8 -194 11 -266 46 -108 51 -166 142 -186 291
-17 130 5 199 157 503 108 216 125 257 125 298 0 74 21 113 64 121 25 5 58 27
112 78 l76 70 52 -6 c28 -3 74 -13 103 -21z m127 -1080 c-10 -8 -35 -17 -54
-20 -19 -3 -52 -15 -74 -26 -50 -27 -93 -39 -112 -32 -20 7 -18 23 4 23 9 1
69 18 132 39 63 21 117 36 119 34 3 -2 -4 -10 -15 -18z"/>
<path d="M2835 3020 c3 -5 12 -7 20 -3 21 7 19 13 -6 13 -11 0 -18 -4 -14 -10z"/>
<path d="M2346 2798 c-18 -26 -20 -38 -6 -38 5 0 16 14 25 30 18 35 4 41 -19
8z"/>
<path d="M2277 2702 c-19 -21 -22 -32 -7 -32 10 0 34 39 27 46 -2 2 -11 -4
-20 -14z"/>
<path d="M2147 2413 c-4 -3 -7 -16 -7 -27 1 -21 1 -21 15 -2 8 11 15 23 15 28
0 10 -14 11 -23 1z"/>
<path d="M2122 2311 c-14 -46 -15 -51 -4 -51 5 0 14 17 20 39 14 46 15 51 4
51 -5 0 -14 -17 -20 -39z"/>
<path d="M2095 2199 c-4 -12 -2 -26 4 -32 8 -8 11 -2 11 21 0 37 -6 41 -15 11z"/>
<path d="M1614 1356 c-28 -28 -34 -42 -34 -75 l0 -41 50 0 c47 0 50 2 50 25
l0 25 215 0 215 0 0 -85 0 -85 -215 0 c-314 0 -315 -1 -315 -220 l0 -140 315
0 315 0 0 50 0 50 -265 0 -265 0 0 80 0 80 231 0 231 0 34 34 34 34 0 117 0
117 -34 34 -34 34 -247 0 -247 0 -34 -34z"/>
<path d="M2838 1374 c-53 -28 -58 -52 -58 -299 0 -330 -15 -315 320 -315 190
0 236 3 261 16 53 27 59 59 59 300 0 239 -7 271 -61 299 -41 22 -482 21 -521
-1z m432 -88 c0 -2 -80 -70 -177 -152 -98 -81 -186 -154 -195 -162 -17 -14
-18 -6 -18 151 l0 167 195 0 c107 0 195 -2 195 -4z m50 -261 l0 -165 -201 0
-201 0 198 165 c109 91 199 165 201 165 2 0 3 -74 3 -165z"/>
<path d="M2450 810 l0 -50 50 0 50 0 0 50 0 50 -50 0 -50 0 0 -50z"/>
<path d="M4502 3327 c-22 -24 -29 -47 -14 -47 9 0 44 36 56 58 12 21 -19 13
-42 -11z"/>
<path d="M4365 3200 c-25 -17 -27 -20 -11 -26 19 -7 51 17 45 35 -3 7 -15 3
-34 -9z"/>
<path d="M4270 3080 c-15 -28 -1 -49 17 -25 15 22 17 45 3 45 -5 0 -14 -9 -20
-20z"/>
<path d="M3737 3023 c-13 -12 -7 -33 8 -33 8 0 15 9 15 20 0 20 -11 26 -23 13z"/>
<path d="M3730 2965 c0 -8 5 -15 10 -15 6 0 10 7 10 15 0 8 -4 15 -10 15 -5 0
-10 -7 -10 -15z"/>
<path d="M3255 2119 c-4 -6 -5 -13 -2 -16 7 -7 27 6 27 18 0 12 -17 12 -25 -2z"/>
</g>
</svg>
