<?xml version="1.0" standalone="no"?>
<!DOCTYPE svg PUBLIC "-//W3C//DTD SVG 20010904//EN"
 "http://www.w3.org/TR/2001/REC-SVG-20010904/DTD/svg10.dtd">
<svg version="1.0" xmlns="http://www.w3.org/2000/svg"
 width="186.000000pt" height="186.000000pt" viewBox="0 0 186.000000 186.000000"
 preserveAspectRatio="xMidYMid meet">
<metadata>
Created by potrace 1.14, written by Peter Selinger 2001-2017
</metadata>
<g transform="translate(0.000000,186.000000) scale(0.100000,-0.100000)"
fill="#000000" stroke="none">
<path d="M1130 1850 c-14 -4 -35 -6 -47 -5 -13 1 -23 -1 -23 -4 0 -3 -19 -7
-43 -8 -42 -1 -132 -10 -132 -13 0 -1 -11 -4 -25 -6 -13 -2 -27 -8 -30 -12 -5
-7 -12 -9 -48 -15 -33 -6 -92 -40 -92 -53 0 -8 -3 -14 -8 -14 -4 0 -13 -15
-21 -32 -12 -29 -30 -55 -71 -105 -6 -7 -10 -19 -10 -27 0 -8 -5 -18 -10 -21
-6 -4 -8 -10 -5 -15 3 -5 1 -11 -4 -14 -5 -3 -12 -23 -16 -43 -5 -21 -10 -45
-11 -53 -2 -8 -4 -71 -4 -139 -1 -88 -5 -128 -14 -137 -8 -7 -16 -11 -19 -8
-10 10 -29 -37 -29 -70 1 -75 57 -238 75 -219 4 3 7 0 7 -8 0 -8 12 -23 27
-34 72 -54 70 -66 -14 -89 -38 -10 -77 -21 -88 -26 -25 -10 -58 -23 -65 -25
-3 0 -26 -10 -52 -22 -25 -12 -56 -24 -67 -28 -12 -3 -21 -11 -21 -16 0 -5 -5
-9 -10 -9 -12 0 -54 -40 -43 -40 5 0 4 -4 -2 -8 -18 -13 -35 -51 -26 -57 5 -3
7 -14 4 -25 -3 -11 0 -20 6 -20 6 0 11 -7 11 -15 0 -8 5 -15 10 -15 17 0 11
-16 -16 -43 l-25 -26 53 -59 c29 -33 58 -61 64 -61 5 -1 23 -15 39 -31 16 -17
33 -30 37 -30 5 0 17 -8 28 -18 19 -18 158 -91 182 -96 14 -3 38 -12 77 -27
13 -5 135 -9 272 -9 268 1 294 5 409 63 62 31 184 111 227 150 48 43 153 165
153 177 0 6 -18 23 -40 38 -47 32 -55 48 -35 68 15 16 19 30 17 72 -2 45 -82
108 -147 116 -21 3 -42 9 -48 15 -5 5 -11 45 -12 88 -2 43 -4 78 -5 78 -5 0
-12 67 -15 148 -2 48 1 87 6 87 5 0 9 7 9 15 0 19 45 39 139 60 41 10 89 26
108 36 18 10 33 16 33 12 0 -3 9 6 20 20 11 14 20 31 20 39 -1 27 -33 54 -82
68 -4 1 -30 10 -58 20 -27 10 -50 14 -50 9 0 -6 -8 -6 -19 1 -11 5 -31 10 -45
10 -29 0 -40 14 -41 55 -2 45 -26 135 -36 135 -5 0 -9 9 -9 20 0 11 -5 20 -11
20 -5 0 -8 4 -4 9 3 6 -3 14 -12 20 -10 6 -14 11 -9 11 4 0 -8 17 -28 37 -20
21 -36 41 -36 45 0 4 -6 8 -13 8 -8 0 -22 9 -32 20 -10 11 -24 20 -31 20 -7 0
-18 8 -23 18 -6 9 -11 13 -11 7 0 -6 -3 -6 -8 0 -17 24 -58 42 -82 35z"/>
</g>
</svg>
